<?xml version="1.0" standalone="no"?>
<!DOCTYPE svg PUBLIC "-//W3C//DTD SVG 20010904//EN"
 "http://www.w3.org/TR/2001/REC-SVG-20010904/DTD/svg10.dtd">
<svg version="1.0" xmlns="http://www.w3.org/2000/svg"
 width="260.000000pt" height="260.000000pt" viewBox="0 0 260.000000 260.000000"
 preserveAspectRatio="xMidYMid meet">
<metadata>
Created by potrace 1.11, written by Peter Selinger 2001-2013
</metadata>
<g transform="translate(0.000000,260.000000) scale(0.100000,-0.100000)"
fill="#000000" stroke="none">
<path d="M0 1300 l0 -1300 1300 0 1300 0 0 1300 0 1300 -1300 0 -1300 0 0
-1300z m1816 423 c-17 -55 -86 -409 -82 -420 4 -9 26 -13 71 -13 36 0 65 -4
65 -9 0 -5 -3 -23 -6 -40 l-6 -31 -73 0 c-114 0 -155 22 -155 84 0 14 16 97
35 186 19 89 35 165 35 171 0 5 -23 9 -51 9 -48 0 -51 1 -45 23 3 12 6 30 6
40 0 15 12 17 106 17 96 0 105 -2 100 -17z m-1237 -28 c61 -36 76 -67 76 -153
-2 -165 -66 -287 -168 -317 -50 -15 -227 -21 -227 -9 0 12 91 478 96 493 7 22
180 11 223 -14z m450 -122 c50 -38 50 -67 -1 -315 l-10 -48 -50 0 c-45 0 -50
2 -45 20 5 18 4 18 -23 -2 -58 -42 -162 -31 -190 21 -16 31 -12 103 9 137 26
43 82 67 174 72 73 4 77 6 77 28 0 46 -66 57 -150 25 -54 -21 -58 -18 -44 37
14 50 194 68 253 25z m231 -40 c6 -32 16 -85 23 -118 l12 -60 65 118 64 117
54 0 54 0 -20 -32 c-11 -18 -72 -125 -136 -238 -65 -113 -128 -216 -141 -230
-21 -20 -37 -25 -96 -28 -72 -4 -72 -4 -66 19 4 13 7 32 7 42 0 13 9 17 40 17
44 0 85 32 96 74 2 12 -11 99 -31 195 -19 96 -35 176 -35 178 0 2 22 3 49 3
l50 0 11 -57z m840 0 c6 -32 16 -85 23 -118 l12 -60 65 118 64 117 54 0 54 0
-20 -32 c-11 -18 -72 -125 -136 -238 -65 -113 -128 -216 -141 -230 -21 -20
-37 -25 -96 -28 -72 -4 -72 -4 -66 19 4 13 7 32 7 42 0 13 9 17 40 17 44 0 85
32 96 74 2 12 -11 99 -31 195 -19 96 -35 176 -35 178 0 2 22 3 49 3 l50 0 11
-57z"/>
<path d="M436 1613 c-7 -25 -56 -287 -56 -301 0 -15 52 -15 84 0 14 6 32 21
40 33 24 36 46 126 46 186 0 50 -3 60 -26 78 -33 26 -81 28 -88 4z"/>
<path d="M843 1380 c-50 -20 -55 -94 -7 -106 35 -9 70 9 94 48 32 53 27 68
-22 67 -24 0 -53 -4 -65 -9z"/>
</g>
</svg>
